<svg width="40" height="40" viewBox="0 0 40 40" fill="none" xmlns="http://www.w3.org/2000/svg">
<g clip-path="url(#clip0)">
<path d="M24.2844 34.1033H21.6314V9.78948H32.8123L28.0763 17.3045C27.8361 17.6856 27.9503 18.1894 28.3315 18.4295C28.4666 18.5147 28.6169 18.5551 28.7656 18.5551C29.0364 18.5551 29.3013 18.4203 29.4563 18.1744L33.5637 11.6567L37.6709 18.1744C37.9112 18.5555 38.415 18.6697 38.796 18.4295C39.177 18.1894 39.2911 17.6856 39.051 17.3045L34.3152 9.78948H34.375C35.0732 9.78948 35.6393 9.2234 35.6393 8.52522C35.6393 7.82713 35.0733 7.26105 34.375 7.26105H25.0745C24.5493 6.49705 23.7742 5.91861 22.8667 5.644C22.737 4.17435 21.5035 3.02174 20.0001 3.02174C18.4966 3.02174 17.2631 4.17435 17.1334 5.644C16.2259 5.91861 15.4508 6.49705 14.9256 7.26105H5.62512C4.92686 7.26105 4.36077 7.82713 4.36077 8.52522C4.36077 9.2234 4.92677 9.78948 5.62512 9.78948H5.68495L0.948946 17.3045C0.708772 17.6856 0.823033 18.1894 1.20408 18.4295C1.33921 18.5147 1.48956 18.5551 1.63816 18.5551C1.90895 18.5551 2.17399 18.4203 2.32903 18.1744L6.43642 11.6567L10.5437 18.1744C10.7839 18.5555 11.2876 18.6697 11.6687 18.4295C12.0498 18.1894 12.164 17.6856 11.9239 17.3045L7.18799 9.78948H18.3689V34.1031H15.7159C14.1282 34.1031 12.8409 35.3904 12.8409 36.9782H27.1593C27.1593 35.3904 25.8721 34.1033 24.2844 34.1033Z" fill="white"/>
<path d="M6.43635 25.6936C3.27393 25.6936 0.690111 23.164 0.602306 20.0225H12.2704C12.1826 23.164 9.59869 25.6936 6.43635 25.6936Z" stroke="white" stroke-width="1.2"/>
<path d="M33.5639 25.6936C30.4014 25.6936 27.8176 23.164 27.7297 20.0225H39.3978C39.31 23.1641 36.7262 25.6936 33.5639 25.6936Z" stroke="white" stroke-width="1.2"/>
</g>
<defs>
<clipPath id="clip0">
<rect width="40" height="40" fill="white"/>
</clipPath>
</defs>
</svg>
